<svg width="322" height="230" viewBox="0 0 322 230" fill="none" xmlns="http://www.w3.org/2000/svg">
<path d="M128.113 96.1562C147.553 87.3628 159.196 72.1801 158.488 51.3145C157.374 15.3839 127.084 -1.19423 85.2512 0.0667874L14.5966 2.40387L21.3465 213.868L96.5404 211.464C118.714 210.741 137.36 206.167 150.759 197.172C165.946 186.983 174.384 171.145 173.658 148.867C172.865 119.813 153.56 103.201 128.113 96.1562ZM100.641 87.4973C82.6863 97.2323 58.3191 96.9297 58.3191 96.9297L52.0755 23.3704C52.0755 23.3704 136.078 31.7099 100.641 87.4973ZM63.5166 194.566L57.2054 120.973C57.2054 120.973 141.208 129.38 105.771 185.083C87.8331 194.835 63.4491 194.549 63.4491 194.549L63.5166 194.566Z" fill="#FFC300"/>
<path d="M150.843 197.155C121.144 229.101 6.98612 229.185 6.98612 229.185L0.168724 17.7378L14.5966 2.40387L21.3465 213.868L96.5236 211.447C118.798 210.741 137.445 206.167 150.843 197.155Z" fill="#EFAB00"/>
<path d="M100.641 87.4973C136.078 31.7267 52.0754 23.3872 52.0754 23.3872C52.0754 23.3872 115.491 11.8363 119.136 54.7949C120.553 71.3058 111.863 81.3603 100.641 87.4973Z" fill="#EFAB00"/>
<path d="M105.771 185.016C141.208 129.262 57.2054 120.906 57.2054 120.906C57.2054 120.906 120.621 109.439 124.266 152.398C125.683 168.925 116.993 178.98 105.771 185.016Z" fill="#EFAB00"/>
<path d="M284.508 91.2635C300.118 83.9664 309.382 71.5916 308.639 54.7445C307.34 25.7411 282.72 12.7106 248.936 14.1397L191.9 16.6618L199.51 187.403L260.259 184.713C278.163 183.923 293.182 180.039 303.914 172.641C316.047 164.234 322.73 151.372 321.937 133.398C320.907 109.927 305.112 96.7111 284.508 91.2635ZM262.234 84.5381C247.856 92.5413 228.147 92.5413 228.147 92.5413L222.376 33.1727C222.376 33.1727 290.246 39.1415 262.234 84.5213V84.5381ZM233.26 171.397L227.489 112.028C227.489 112.028 295.426 117.947 267.347 163.326C252.969 171.38 233.26 171.38 233.26 171.38V171.397Z" fill="#FFC300"/>
<path d="M303.881 172.624C280.256 198.753 188.002 199.913 188.002 199.913L180.391 29.1879L191.883 16.6618L199.51 187.403L260.259 184.713C278.13 183.906 293.131 179.972 303.881 172.624Z" fill="#EFAB00"/>
<path d="M262.234 84.5212C290.313 39.1247 222.376 33.2231 222.376 33.2231C222.376 33.2231 273.489 23.2863 276.847 57.939C278.163 71.2722 271.245 79.4772 262.234 84.5212Z" fill="#EFAB00"/>
<path d="M267.347 163.31C295.426 117.913 227.489 112.011 227.489 112.011C227.489 112.011 278.602 102.075 281.977 136.727C283.277 150.06 276.358 158.282 267.347 163.31Z" fill="#EFAB00"/>
</svg>
