<svg width="29" height="35" viewBox="0 0 29 35" fill="none" xmlns="http://www.w3.org/2000/svg">
<path d="M19.1878 28.5621C19.1878 29.8053 18.6939 30.9976 17.8148 31.8766C16.9358 32.7557 15.7435 33.2496 14.5003 33.2496C13.2572 33.2496 12.0649 32.7557 11.1858 31.8766C10.3068 30.9976 9.81292 29.8053 9.81292 28.5621M15.6269 6.69221L13.3363 6.68753C8.11138 6.67503 3.57553 10.9203 3.53959 16.0624V21.9841C3.53959 23.2185 3.38334 24.4232 2.70992 25.4497L2.26149 26.1341C1.57869 27.1715 2.31305 28.5621 3.53959 28.5621H25.4611C26.6876 28.5621 27.4204 27.1715 26.7392 26.1341L26.2908 25.4497C25.6189 24.4232 25.4611 23.2169 25.4611 21.9826V16.0639C25.3986 10.9203 20.8518 6.70471 15.6269 6.69221V6.69221Z" stroke="white" stroke-width="3.12495" stroke-linecap="round" stroke-linejoin="round"/>
<path d="M14.5006 2C15.3293 2 16.1242 2.32923 16.7102 2.91528C17.2963 3.50132 17.6255 4.29616 17.6255 5.12495V6.68742H11.3756V5.12495C11.3756 4.29616 11.7048 3.50132 12.2909 2.91528C12.8769 2.32923 13.6718 2 14.5006 2Z" stroke="white" stroke-width="3.12495" stroke-linecap="round" stroke-linejoin="round"/>
</svg>
