<svg width="64" height="41" viewBox="0 0 64 41" fill="none" xmlns="http://www.w3.org/2000/svg">
<path d="M25.107 16.8252C28.9167 15.2865 31.1985 12.6299 31.0596 8.97888C30.8413 2.69184 24.9052 -0.208963 16.7071 0.0116863L2.8606 0.420623L4.18341 37.4221L18.9195 37.0014C23.265 36.8749 26.9192 36.0746 29.545 34.5007C32.5213 32.7178 34.1748 29.9465 34.0326 26.0483C33.8772 20.9646 30.094 18.0579 25.107 16.8252ZM19.7231 15.3101C16.2044 17.0135 11.4291 16.9605 11.4291 16.9605L10.2055 4.08929C10.2055 4.08929 26.6679 5.54852 19.7231 15.3101ZM12.4477 34.0447L11.2108 21.1676C11.2108 21.1676 27.6732 22.6386 20.7285 32.3854C17.2131 34.0917 12.4344 34.0417 12.4344 34.0417L12.4477 34.0447Z" fill="#FFC300"/>
<path d="M29.5612 34.4975C23.7408 40.0873 1.36875 40.102 1.36875 40.102L0.0327148 3.10351L2.86022 0.42041L4.18303 37.4219L18.9158 36.9982C23.2811 36.8747 26.9354 36.0744 29.5612 34.4975Z" fill="#EFAB00"/>
<path d="M19.7227 15.3102C26.6675 5.55162 10.2051 4.09239 10.2051 4.09239C10.2051 4.09239 22.6329 2.07124 23.3472 9.58804C23.625 12.4771 21.9219 14.2364 19.7227 15.3102Z" fill="#EFAB00"/>
<path d="M20.7285 32.3735C27.6732 22.6178 11.2108 21.1557 11.2108 21.1557C11.2108 21.1557 23.6387 19.1492 24.353 26.666C24.6308 29.558 22.9276 31.3173 20.7285 32.3735Z" fill="#EFAB00"/>
<path d="M55.7561 15.969C58.8151 14.6922 60.6307 12.5269 60.4852 9.57899C60.2306 4.50405 55.4056 2.224 48.7849 2.47407L37.6072 2.91537L39.0986 32.7913L51.0039 32.3206C54.5127 32.1823 57.456 31.5027 59.5592 30.2083C61.937 28.7373 63.2466 26.4866 63.0911 23.3416C62.8894 19.2346 59.794 16.9222 55.7561 15.969ZM51.3909 14.7922C48.5733 16.1926 44.7107 16.1926 44.7107 16.1926L43.5797 5.80441C43.5797 5.80441 56.8805 6.84882 51.3909 14.7893V14.7922ZM45.7127 29.9905L44.5817 19.6024C44.5817 19.6024 57.8958 20.6379 52.3929 28.5784C49.5753 29.9876 45.7127 29.9876 45.7127 29.9876V29.9905Z" fill="#FFC300"/>
<path d="M59.5527 30.2055C54.9229 34.7773 36.8433 34.9803 36.8433 34.9803L35.3519 5.10731L37.604 2.91553L39.0987 32.7915L51.004 32.3208C54.5062 32.1795 57.4461 31.4911 59.5527 30.2055Z" fill="#EFAB00"/>
<path d="M51.391 14.7895C56.8939 6.84614 43.5798 5.8135 43.5798 5.8135C43.5798 5.8135 53.5968 4.07478 54.2549 10.1382C54.5128 12.4712 53.157 13.9069 51.391 14.7895Z" fill="#EFAB00"/>
<path d="M52.3929 28.5757C57.8958 20.6323 44.5817 19.5996 44.5817 19.5996C44.5817 19.5996 54.5987 17.8609 55.2601 23.9244C55.5148 26.2574 54.1589 27.696 52.3929 28.5757Z" fill="#EFAB00"/>
</svg>
