<svg width="69" height="69" viewBox="0 0 69 69" fill="none" xmlns="http://www.w3.org/2000/svg">
<circle cx="34.5" cy="34.5" r="34.5" fill="#C8C8C8"/>
<path d="M49.7273 25.9091V22.2727H46.0909V18.6364H49.7273V15H53.3636V18.6364H57V22.2727H53.3636V25.9091H49.7273ZM20.6364 51.3636C19.6364 51.3636 18.7806 51.0079 18.0691 50.2964C17.3564 49.5836 17 48.7273 17 47.7273V25.9091C17 24.9091 17.3564 24.0533 18.0691 23.3418C18.7806 22.6291 19.6364 22.2727 20.6364 22.2727H26.3636L29.7273 18.6364H40.6364V22.2727H31.3182L28 25.9091H20.6364V47.7273H49.7273V31.3636H53.3636V47.7273C53.3636 48.7273 53.0079 49.5836 52.2964 50.2964C51.5836 51.0079 50.7273 51.3636 49.7273 51.3636H20.6364ZM35.1818 45C37.4545 45 39.3867 44.2048 40.9782 42.6145C42.5685 41.023 43.3636 39.0909 43.3636 36.8182C43.3636 34.5455 42.5685 32.6133 40.9782 31.0218C39.3867 29.4315 37.4545 28.6364 35.1818 28.6364C32.9091 28.6364 30.977 29.4315 29.3855 31.0218C27.7952 32.6133 27 34.5455 27 36.8182C27 39.0909 27.7952 41.023 29.3855 42.6145C30.977 44.2048 32.9091 45 35.1818 45ZM35.1818 41.3636C33.9091 41.3636 32.8333 40.9242 31.9545 40.0455C31.0758 39.1667 30.6364 38.0909 30.6364 36.8182C30.6364 35.5455 31.0758 34.4697 31.9545 33.5909C32.8333 32.7121 33.9091 32.2727 35.1818 32.2727C36.4545 32.2727 37.5303 32.7121 38.4091 33.5909C39.2879 34.4697 39.7273 35.5455 39.7273 36.8182C39.7273 38.0909 39.2879 39.1667 38.4091 40.0455C37.5303 40.9242 36.4545 41.3636 35.1818 41.3636Z" fill="#313131"/>
</svg>
