<svg width="27" height="21" viewBox="0 0 27 21" fill="none" xmlns="http://www.w3.org/2000/svg">
<path d="M25.1762 9.32261C25.7583 10.0841 25.7583 11.1121 25.1762 11.8724C23.3424 14.2662 18.943 19.195 13.8066 19.195C8.67019 19.195 4.27073 14.2662 2.437 11.8724C2.15376 11.5078 2 11.0592 2 10.5975C2 10.1358 2.15376 9.68723 2.437 9.32261C4.27073 6.92882 8.67019 2 13.8066 2C18.943 2 23.3424 6.92882 25.1762 9.32261V9.32261Z" stroke="#313131" stroke-width="2.2" stroke-linecap="round" stroke-linejoin="round"/>
<path d="M13.8065 14.2819C15.8414 14.2819 17.4911 12.6322 17.4911 10.5972C17.4911 8.56227 15.8414 6.9126 13.8065 6.9126C11.7715 6.9126 10.1218 8.56227 10.1218 10.5972C10.1218 12.6322 11.7715 14.2819 13.8065 14.2819Z" stroke="#313131" stroke-width="2.2" stroke-linecap="round" stroke-linejoin="round"/>
</svg>
