<svg width="31" height="26" viewBox="0 0 31 26" fill="none" xmlns="http://www.w3.org/2000/svg">
<path d="M30.5744 18.9794C31.1419 19.5233 31.1419 20.4052 30.5744 20.9492L25.7306 25.5911C24.8218 26.4622 23.25 25.8517 23.25 24.6062V22.2857H19.6907C19.5911 22.2857 19.4925 22.2661 19.4012 22.228C19.3098 22.19 19.2275 22.1343 19.1595 22.0645L14.8876 17.6772L18.1167 14.3609L21.3125 17.6429H23.25V15.3225C23.25 14.0784 24.8207 13.4655 25.7306 14.3376L30.5744 18.9794ZM0.726561 8.35714H5.81249L9.00821 11.6391L12.2374 8.32279L7.96541 3.93552C7.89743 3.8657 7.8152 3.81003 7.72382 3.77197C7.63244 3.73391 7.53387 3.71428 7.43424 3.71428H0.726561C0.325318 3.71428 0 4.02611 0 4.41071V7.66072C0 8.04532 0.325318 8.35714 0.726561 8.35714ZM23.25 8.35714V10.6776C23.25 11.9231 24.8218 12.5336 25.7306 11.6626L30.5744 7.02064C31.1419 6.47667 31.1419 5.59476 30.5744 5.05085L25.7306 0.409091C24.8207 -0.46307 23.25 0.149845 23.25 1.39396V3.71428H19.6907C19.5911 3.71429 19.4925 3.73394 19.4012 3.772C19.3098 3.81005 19.2275 3.86571 19.1595 3.93552L5.81249 17.6429H0.726561C0.325318 17.6429 0 17.9547 0 18.3393V21.5893C0 21.9739 0.325318 22.2857 0.726561 22.2857H7.43424C7.63562 22.2857 7.82797 22.2056 7.96541 22.0645L21.3125 8.35714H23.25Z" fill="#5463FF"/>
</svg>
